<svg width="60" height="60" xmlns="http://www.w3.org/2000/svg">
  <defs>
    <linearGradient id="chessGrad" x1="0%" y1="0%" x2="100%" y2="100%">
      <stop offset="0%" style="stop-color:#D4AF37;stop-opacity:0.9" />
      <stop offset="100%" style="stop-color:#6E2323;stop-opacity:0.7" />
    </linearGradient>
  </defs>
  <rect x="5" y="5" width="50" height="50" rx="3" fill="url(#chessGrad)"/>
  <rect x="10" y="10" width="6" height="6" fill="#0e0b09" opacity="0.8"/>
  <rect x="22" y="10" width="6" height="6" fill="#0e0b09" opacity="0.8"/>
  <rect x="34" y="10" width="6" height="6" fill="#0e0b09" opacity="0.8"/>
  <rect x="46" y="10" width="6" height="6" fill="#0e0b09" opacity="0.8"/>
  <rect x="16" y="22" width="6" height="6" fill="#0e0b09" opacity="0.8"/>
  <rect x="28" y="22" width="6" height="6" fill="#0e0b09" opacity="0.8"/>
  <rect x="40" y="22" width="6" height="6" fill="#0e0b09" opacity="0.8"/>
  <rect x="10" y="34" width="6" height="6" fill="#0e0b09" opacity="0.8"/>
  <rect x="22" y="34" width="6" height="6" fill="#0e0b09" opacity="0.8"/>
  <rect x="34" y="34" width="6" height="6" fill="#0e0b09" opacity="0.8"/>
  <rect x="46" y="34" width="6" height="6" fill="#0e0b09" opacity="0.8"/>
  <rect x="16" y="46" width="6" height="6" fill="#0e0b09" opacity="0.8"/>
  <rect x="28" y="46" width="6" height="6" fill="#0e0b09" opacity="0.8"/>
  <rect x="40" y="46" width="6" height="6" fill="#0e0b09" opacity="0.8"/>
</svg>
